<svg width="70" height="66" viewBox="0 0 70 66" fill="none" xmlns="http://www.w3.org/2000/svg">
<path d="M29.4738 0C11.0525 0 0 17.5999 0 26.4007C0 35.2015 3.68367 41.8017 11.0525 41.8017C18.4213 41.8017 22.1064 44.0006 22.1064 50.6007C22.1064 59.3998 27.6319 66 35.0007 66C58.949 66 70 50.6008 70 35.2015C69.9985 8.80081 51.5743 0 29.4738 0ZM24.8684 8.80081C25.474 8.80172 26.0735 8.94468 26.6326 9.22153C27.1918 9.49837 27.6997 9.90368 28.1273 10.4143C28.555 10.9249 28.894 11.5309 29.125 12.1976C29.356 12.8642 29.4745 13.5786 29.4738 14.2998C29.4738 17.3394 27.4117 19.8005 24.8684 19.8005C22.3252 19.8005 20.2631 17.3376 20.2631 14.2998C20.2624 13.5786 20.3809 12.8642 20.6119 12.1976C20.8429 11.5309 21.1819 10.9249 21.6096 10.4143C22.0372 9.90368 22.5451 9.49837 23.1043 9.22153C23.6634 8.94468 24.2629 8.80172 24.8684 8.80081ZM39.6031 8.80081C40.2087 8.80172 40.8081 8.94468 41.3673 9.22153C41.9265 9.49837 42.4344 9.90368 42.862 10.4143C43.2896 10.9249 43.6287 11.5309 43.8597 12.1976C44.0907 12.8642 44.2092 13.5786 44.2085 14.2998C44.2094 15.0212 44.091 15.7357 43.8601 16.4026C43.6292 17.0694 43.2902 17.6756 42.8625 18.1864C42.4349 18.6972 41.9269 19.1027 41.3676 19.3796C40.8084 19.6566 40.2088 19.7996 39.6031 19.8005C38.9976 19.7994 38.3982 19.6562 37.8391 19.3791C37.28 19.1021 36.7722 18.6966 36.3447 18.1858C35.9172 17.675 35.5783 17.0689 35.3475 16.4022C35.1166 15.7354 34.9983 15.021 34.9993 14.2998C34.9977 12.8435 35.4819 11.4461 36.3452 10.4149C37.2086 9.38371 38.3804 8.80311 39.6031 8.80081ZM54.3407 17.5999C54.9465 17.6006 55.5463 17.7434 56.1057 18.0203C56.6651 18.2971 57.1733 18.7025 57.6011 19.2134C58.0289 19.7242 58.368 20.3304 58.599 20.9974C58.8301 21.6644 58.9485 22.3791 58.9475 23.1006C58.9485 23.822 58.8301 24.5366 58.599 25.2035C58.368 25.8704 58.0288 26.4765 57.601 26.9872C57.1731 27.4979 56.665 27.9032 56.1056 28.1798C55.5462 28.4565 54.9465 28.5991 54.3407 28.5996C53.7352 28.5989 53.1357 28.4561 52.5766 28.1793C52.0174 27.9025 51.5095 27.4972 51.082 26.9865C50.6544 26.4758 50.3155 25.8698 50.0847 25.203C49.8539 24.5362 49.7357 23.8218 49.7369 23.1006C49.7357 22.3793 49.8539 21.6648 50.0847 20.998C50.3155 20.3311 50.6543 19.7249 51.0819 19.2141C51.5094 18.7033 52.0173 18.2978 52.5765 18.0208C53.1356 17.7438 53.7351 17.6008 54.3407 17.5999ZM11.9741 22.0012C12.5795 22.0018 13.1789 22.1446 13.738 22.4213C14.297 22.698 14.8048 23.1031 15.2324 23.6136C15.6599 24.1241 15.9988 24.73 16.2297 25.3966C16.4606 26.0631 16.5789 26.7773 16.578 27.4984C16.578 30.538 14.5159 32.9991 11.9741 32.9991C9.4323 32.9991 7.3688 30.5362 7.3688 27.4984C7.36764 26.0421 7.85215 24.6449 8.71577 23.614C9.57939 22.5832 10.7514 22.003 11.9741 22.0012ZM34.9993 44.0006C38.0515 44.0006 40.5248 46.9533 40.5248 50.6025C40.5248 54.2465 38.0515 57.2009 34.9993 57.2009C31.947 57.2009 29.4738 54.2465 29.4738 50.6025C29.4724 49.7368 29.6143 48.8793 29.8913 48.079C30.1683 47.2786 30.575 46.5511 31.0881 45.938C31.6012 45.325 32.2107 44.8383 32.8818 44.5058C33.5529 44.1734 34.2724 44.0017 34.9993 44.0006Z" fill="black"/>
</svg>
