<svg width="70" height="66" viewBox="0 0 70 66" fill="none" xmlns="http://www.w3.org/2000/svg">
<path d="M69.1174 13.5786C68.855 13.4069 68.5403 13.2965 68.2069 13.2594C67.8735 13.2222 67.534 13.2597 67.2247 13.3677L37.1046 23.9963C35.795 24.4613 34.1549 24.6823 32.4712 24.6823C30.1233 24.69 27.6944 24.2453 26.0013 23.6406C25.4853 23.4635 24.994 23.242 24.5358 22.9799C24.6605 22.9291 24.8164 22.8732 24.9879 22.8173L52.3829 13.1517L56.4675 14.5746V10.4151C56.4737 10.1185 56.3975 9.8246 56.2447 9.55533C56.0919 9.28606 55.8665 9.04841 55.5851 8.86011C55.3239 8.68859 55.0102 8.57832 54.6779 8.54116C54.3455 8.504 54.007 8.54136 53.6987 8.64922L23.5785 19.2778C22.6494 19.5827 21.8512 19.9588 21.1777 20.5051C20.3978 21.1321 19.9548 21.9855 19.946 22.8783C19.946 22.9037 19.9554 22.9469 19.9554 22.9469V60.3744L19.9492 60.4253C19.9492 60.4354 19.9585 60.4405 19.9585 60.4507V60.4913H19.9648C20.0271 61.7999 20.8378 62.6333 21.6111 63.2228C24.0431 64.9709 28.1278 65.9492 32.4743 66C34.5322 66 36.6213 65.7459 38.5545 65.07L68.684 54.4389C69.4791 54.1594 69.9998 53.4657 69.9998 52.6806V15.1336C70.0046 14.8372 69.9278 14.5436 69.7751 14.2745C69.6224 14.0054 69.3977 13.7676 69.1174 13.5786ZM50.0132 6.46404C49.9602 5.90504 49.6765 5.37145 49.1713 5.0513C48.909 4.87958 48.5943 4.76924 48.2609 4.73209C47.9275 4.69494 47.588 4.73238 47.2787 4.8404L17.1585 15.4639C15.8489 15.9264 14.2057 16.15 12.5251 16.15C10.1773 16.1551 7.74831 15.7104 6.05522 15.1031C5.53874 14.929 5.04731 14.7091 4.58974 14.4476C4.71446 14.3967 4.87036 14.3408 5.04186 14.2849L32.44 4.61934L36.5246 6.04225V1.88787C36.5302 1.59107 36.4534 1.29708 36.3001 1.02782C36.1468 0.758568 35.9208 0.520999 35.6391 0.332835C35.3772 0.161337 35.063 0.0511108 34.7302 0.013961C34.3974 -0.0231888 34.0584 0.0141366 33.7496 0.12194L3.62939 10.7531C2.70021 11.058 1.90512 11.4315 1.2285 11.9803C0.449749 12.6078 0.00797688 13.4612 0 14.3536C0 14.384 0.00935341 14.4247 0.00935341 14.4247V51.9717H0.0155905C0.0779511 53.2802 0.888639 54.1136 1.66191 54.7031C4.09397 56.4513 8.1786 57.427 12.5282 57.4778C13.7095 57.4721 14.8869 57.3683 16.0423 57.1678V22.9444C16.0111 21.1657 16.8841 19.4582 18.4182 18.2284C19.481 17.3883 20.7438 16.7346 22.1287 16.3075L50.0132 6.46404Z" fill="black"/>
</svg>
