<svg width="70" height="66" viewBox="0 0 70 66" fill="none" xmlns="http://www.w3.org/2000/svg">
<path d="M23.2419 0.0145742C20.1202 -0.192012 17.5052 1.8222 16.7384 4.49491L15.1228 10.2277H15.3419C39.5347 10.2277 59.1545 28.73 59.1545 51.5448V51.7514L65.2335 50.2279C68.0813 49.5177 70.2035 47.0387 69.9845 44.0948C68.2593 20.4924 48.2698 1.64144 23.2419 0.0145742ZM54.7459 52.8618C54.7596 52.4228 54.7733 51.9838 54.7733 51.5448C54.7733 31.0025 37.125 14.3594 15.3419 14.3594C14.8764 14.3594 14.4109 14.3723 13.9454 14.3852L0.0759461 63.4106C-0.129426 64.1208 0.0896375 64.8825 0.637295 65.399C1.18495 65.9155 1.99275 66.1221 2.74578 65.9284L54.7459 52.8618V52.8618ZM24.1044 35.018C21.681 35.018 19.7232 33.1716 19.7232 30.8863C19.7232 28.6009 21.681 26.7545 24.1044 26.7545C26.5278 26.7545 28.4857 28.6009 28.4857 30.8863C28.4857 33.1716 26.5278 35.018 24.1044 35.018ZM41.6295 43.2814C41.6295 45.5668 39.6716 47.4131 37.2482 47.4131C34.8248 47.4131 32.867 45.5668 32.867 43.2814C32.867 40.9961 34.8248 39.1497 37.2482 39.1497C39.6716 39.1497 41.6295 40.9961 41.6295 43.2814ZM21.9138 49.479C21.9138 51.7643 19.9559 53.6107 17.5325 53.6107C15.1092 53.6107 13.1513 51.7643 13.1513 49.479C13.1513 47.1936 15.1092 45.3473 17.5325 45.3473C19.9559 45.3473 21.9138 47.1936 21.9138 49.479Z" fill="black"/>
</svg>
