<svg width="70" height="66" viewBox="0 0 70 66" fill="none" xmlns="http://www.w3.org/2000/svg">
<path d="M56.6799 42.5035V31.5385C56.6799 30.7076 56.3291 29.9107 55.7046 29.3232C55.0801 28.7357 54.2331 28.4056 53.3499 28.4056H50.0199C57.4791 23.3617 59.2108 13.5871 53.8494 6.47553C51.255 3.12015 47.3563 0.865285 43.0026 0.202192C38.6489 -0.460901 34.1931 0.52151 30.6059 2.93539C28.3748 4.43917 26.5766 6.47553 25.3778 8.76253C23.5169 7.67793 21.4464 6.9503 19.2854 6.62154C17.1244 6.29278 14.9156 6.36937 12.7863 6.84691C10.6569 7.32445 8.64889 8.1935 6.87792 9.40403C5.10696 10.6146 3.60798 12.1427 2.46726 13.9004C0.154058 17.4402 -0.570103 21.6994 0.454026 25.7413C1.47815 29.7833 4.16672 33.2772 7.92849 35.4546C8.62779 35.8305 9.3271 36.2378 10.0597 36.4884V62.8671C10.0597 63.698 10.4105 64.4949 11.035 65.0824C11.6595 65.6699 12.5065 66 13.3897 66H53.3499C54.2331 66 55.0801 65.6699 55.7046 65.0824C56.3291 64.4949 56.6799 63.698 56.6799 62.8671V51.9021L70 64.4336V29.972L56.6799 42.5035ZM40.0299 9.6084C41.7962 9.6084 43.4902 10.2685 44.7392 11.4436C45.9882 12.6186 46.6899 14.2124 46.6899 15.8741C46.6899 17.5359 45.9882 19.1296 44.7392 20.3047C43.4902 21.4797 41.7962 22.1399 40.0299 22.1399C38.2635 22.1399 36.5695 21.4797 35.3205 20.3047C34.0715 19.1296 33.3698 17.5359 33.3698 15.8741C33.3698 14.2124 34.0715 12.6186 35.3205 11.4436C36.5695 10.2685 38.2635 9.6084 40.0299 9.6084ZM16.7197 15.8741C18.4861 15.8741 20.1801 16.5343 21.4291 17.7093C22.6781 18.8844 23.3798 20.4781 23.3798 22.1399C23.3798 23.8016 22.6781 25.3954 21.4291 26.5704C20.1801 27.7455 18.4861 28.4056 16.7197 28.4056C14.9534 28.4056 13.2594 27.7455 12.0104 26.5704C10.7614 25.3954 10.0597 23.8016 10.0597 22.1399C10.0597 20.4781 10.7614 18.8844 12.0104 17.7093C13.2594 16.5343 14.9534 15.8741 16.7197 15.8741Z" fill="black"/>
</svg>
