<svg width="70" height="66" viewBox="0 0 70 66" fill="none" xmlns="http://www.w3.org/2000/svg">
<path d="M70 0V45.8333C70 49.2369 68.6415 52.5012 66.2232 54.9079C63.805 57.3146 60.5252 58.6667 57.1053 58.6667C53.6854 58.6667 50.4055 57.3146 47.9873 54.9079C45.5691 52.5012 44.2105 49.2369 44.2105 45.8333C44.2105 42.4297 45.5691 39.1655 47.9873 36.7588C50.4055 34.3521 53.6854 33 57.1053 33C59.0947 33 60.9737 33.44 62.6316 34.2467V12.7233L25.7895 20.5333V53.1667C25.7895 56.5703 24.4309 59.8345 22.0127 62.2412C19.5945 64.6479 16.3146 66 12.8947 66C9.47484 66 6.19501 64.6479 3.77678 62.2412C1.35855 59.8345 0 56.5703 0 53.1667C0 49.7631 1.35855 46.4988 3.77678 44.0921C6.19501 41.6854 9.47484 40.3333 12.8947 40.3333C14.8842 40.3333 16.7632 40.7733 18.4211 41.58V11L70 0Z" fill="black"/>
</svg>
