<svg width="70" height="66" viewBox="0 0 70 66" fill="none" xmlns="http://www.w3.org/2000/svg">
<path d="M69.7552 61.9978L69.7752 61.9823L44.265 2.61761L44.2542 2.62586C43.6925 1.07735 42.5201 0 41.1512 0C40.4848 0.0010549 39.8328 0.260844 39.2737 0.748103C38.7146 1.23536 38.2722 1.92933 37.9998 2.74648L21.0229 42.2529L16.8664 32.5804L16.861 32.5845C16.7127 32.1703 16.4804 31.8206 16.191 31.5755C15.9015 31.3305 15.5665 31.1999 15.2243 31.1989C14.4846 31.1989 13.8501 31.7948 13.5639 32.6443L1.44639 60.8452H1.39191V60.971L0.218685 63.701C0.0773554 63.9466 0.00046797 64.2482 0 64.5587C0 65.3464 0.474969 65.9845 1.06043 65.9845C1.17706 65.9845 1.28679 65.9536 1.39191 65.9062V66H68.1485V65.9484C68.6516 65.8966 69.1217 65.5917 69.4649 65.0946C69.8081 64.5976 69.9992 63.9449 70 63.2669C69.9982 62.8231 69.9141 62.3869 69.7552 61.9978Z" fill="black"/>
</svg>
