<svg width="70" height="66" viewBox="0 0 70 66" fill="none" xmlns="http://www.w3.org/2000/svg">
<path d="M0 33C0 24.2479 3.68749 15.8542 10.2513 9.66548C16.815 3.47678 25.7174 0 35 0C44.2826 0 53.185 3.47678 59.7487 9.66548C66.3125 15.8542 70 24.2479 70 33C70 41.7521 66.3125 50.1458 59.7487 56.3345C53.185 62.5232 44.2826 66 35 66C25.7174 66 16.815 62.5232 10.2513 56.3345C3.68749 50.1458 0 41.7521 0 33ZM22.3085 7.76769C18.3802 9.52905 14.9098 12.0819 12.1423 15.246L15.6262 25.9278L21.0431 27.6286L32.3077 19.5563V14.0529L22.3085 7.76262V7.76769ZM5.57846 36.2188C6.11692 40.6103 7.73231 44.6972 10.1715 48.2257H20.4238L23.8431 45.0018L19.4115 32.4618L13.8977 30.7306L5.57846 36.2137V36.2188ZM29.0015 60.3443C32.959 61.1123 37.041 61.1123 40.9985 60.3443L45.2523 51.3277L41.9623 48.2308H28.0377L24.7531 51.3277L29.0015 60.3494V60.3443ZM59.8231 48.2308C62.1923 44.8089 63.7862 40.8692 64.3677 36.63L56.0538 30.7509L50.5885 32.4669L46.1569 45.0069L49.5762 48.2308H59.8231ZM57.7877 15.1648C55.0319 12.0359 51.5867 9.51002 47.6915 7.76262L37.6923 14.0529V19.5563L48.9569 27.6286L54.3631 25.9329L57.7877 15.1648Z" fill="black"/>
</svg>
