<svg width="70" height="66" viewBox="0 0 70 66" fill="none" xmlns="http://www.w3.org/2000/svg">
<path d="M43.6734 65.8594C37.3078 64.7224 31.8391 56.453 28.6234 50.393C26.4359 46.2713 25.8781 41.3096 26.4797 36.4772L29.1266 15.248C29.2797 13.9818 29.6844 12.7672 30.5375 11.992C32.7469 9.9763 38.4563 6.62977 50.7828 8.82633C63.1094 11.0229 67.7578 16.243 69.3766 18.9434C70 19.9771 70.0875 21.2821 69.9344 22.5484L67.2875 43.7775C66.686 48.597 64.936 53.1581 61.8406 56.3367C57.2797 61.0011 50.0281 66.9965 43.6734 65.8594ZM45.5438 29.9779C45.5547 29.9133 45.5656 29.8358 45.5766 29.7712C45.9266 26.9544 44.3078 24.3444 41.9563 23.918C39.6047 23.4916 37.4172 25.4427 37.0672 28.2465C37.0563 28.3111 37.0563 28.3887 37.0453 28.4533C36.9797 29.151 37.6141 29.5386 38.1719 29.319C39.1563 28.9313 40.2281 28.8151 41.3109 29.0089C42.3938 29.2027 43.4 29.6937 44.2422 30.4043C44.7234 30.8049 45.4234 30.6627 45.5328 29.9779H45.5438ZM57.8594 32.8464C58.3406 33.2469 59.0406 33.1048 59.15 32.42C59.1609 32.3554 59.1719 32.2779 59.1828 32.2133C59.5328 29.3965 57.9141 26.7865 55.5625 26.3601C53.2109 25.9337 51.0234 27.8847 50.6734 30.6886C50.6625 30.7532 50.6625 30.8307 50.6516 30.8953C50.5859 31.5931 51.2203 31.9807 51.7781 31.761C52.7625 31.3734 53.8344 31.2571 54.9172 31.4509C56 31.6447 57.0063 32.1357 57.8485 32.8464H57.8594ZM56.6016 43.855C53.4516 45.5089 49.8859 46.155 46.2219 45.5089C42.5578 44.8629 39.3094 42.9893 36.7063 40.3018C36.0172 39.5911 34.9344 40.0821 35.0438 41.1675C35.6891 47.4341 39.7469 52.6801 45.2156 53.662C50.6844 54.644 55.8469 51.052 57.9906 45.2763C58.3625 44.2814 57.4438 43.4286 56.6125 43.868L56.6016 43.855ZM26.3266 57.7451C19.9609 58.8821 12.7094 52.8997 8.15936 48.2223C5.06404 45.0567 3.31404 40.4956 2.71248 35.6632L0.0656004 14.4469C-0.0875247 13.1807 -2.46167e-05 11.8757 0.623413 10.842C2.24216 8.14152 6.8906 2.93438 19.2172 0.724895C31.5437 -1.48459 37.2531 1.87486 39.4625 3.89053C39.5609 3.98098 39.6484 4.07142 39.725 4.16187C33.95 4.78208 30.4172 6.87527 28.3937 8.72297C26.5344 10.4156 25.8781 12.8577 25.6594 14.6537L23.5484 31.6189C23.2641 31.6318 22.9797 31.6706 22.6844 31.7223C18.8344 32.4071 15.925 35.9474 15.225 40.2889C15.05 41.3484 16.1328 41.8652 16.8437 41.1933C18.55 39.5911 20.5734 38.4412 22.8266 37.9114C22.4984 42.873 23.2641 48.0802 25.6594 52.5896C26.4141 54.0109 27.3 55.5743 28.3062 57.1636C27.6609 57.435 27.0047 57.6288 26.3375 57.7451H26.3266ZM19.0422 20.2872C18.9328 19.6024 18.2328 19.4603 17.7516 19.8608C16.9094 20.5715 15.914 21.0625 14.8203 21.2563C13.7265 21.4501 12.6547 21.3338 11.6812 20.9462C11.1234 20.7265 10.489 21.1142 10.5547 21.8119C10.5656 21.8765 10.5656 21.954 10.5765 22.0186C10.9265 24.8354 13.114 26.7735 15.4656 26.3471C17.8172 25.9208 19.4359 23.3107 19.0859 20.494C19.075 20.4294 19.0641 20.3518 19.0531 20.2872H19.0422Z" fill="black"/>
</svg>
