<svg width="70" height="55" viewBox="0 0 70 55" fill="none" xmlns="http://www.w3.org/2000/svg">
<path d="M7 55C5.075 55 3.42767 54.1032 2.058 52.3096C0.686 50.5129 0 48.3542 0 45.8333V9.16667C0 6.64583 0.686 4.48861 2.058 2.695C3.42767 0.898333 5.075 0 7 0H63C64.925 0 66.5735 0.898333 67.9455 2.695C69.3152 4.48861 70 6.64583 70 9.16667V45.8333C70 48.3542 69.3152 50.5129 67.9455 52.3096C66.5735 54.1032 64.925 55 63 55H7ZM17.5 41.25H24.5V32.0833H31.5V22.9167H24.5V13.75H17.5V22.9167H10.5V32.0833H17.5V41.25ZM43.75 41.25C45.2083 41.25 46.4473 40.5808 47.467 39.2425C48.489 37.9072 49 36.2847 49 34.375C49 32.4653 48.489 30.8428 47.467 29.5075C46.4473 28.1692 45.2083 27.5 43.75 27.5C42.2917 27.5 41.0527 28.1692 40.033 29.5075C39.011 30.8428 38.5 32.4653 38.5 34.375C38.5 36.2847 39.011 37.9072 40.033 39.2425C41.0527 40.5808 42.2917 41.25 43.75 41.25ZM54.25 27.5C55.7083 27.5 56.9473 26.8308 57.967 25.4925C58.989 24.1572 59.5 22.5347 59.5 20.625C59.5 18.7153 58.989 17.0928 57.967 15.7575C56.9473 14.4192 55.7083 13.75 54.25 13.75C52.7917 13.75 51.5527 14.4192 50.533 15.7575C49.511 17.0928 49 18.7153 49 20.625C49 22.5347 49.511 24.1572 50.533 25.4925C51.5527 26.8308 52.7917 27.5 54.25 27.5Z" fill="black"/>
</svg>
